<svg width="20" height="20" viewBox="0 0 20 20" fill="none" xmlns="http://www.w3.org/2000/svg">
<path d="M19.42 8.6701V11.1301C19.42 11.8701 18.88 12.5001 18.22 12.5001H12.74V17.9601C12.74 18.6201 12.14 19.1601 11.37 19.1601H8.91C8.14 19.1601 7.54001 18.6201 7.54001 17.9601V12.5001H2.06C1.4 12.5001 0.859985 11.8701 0.859985 11.1301V8.6701C0.859985 7.9001 1.4 7.2701 2.06 7.2701H7.54001V1.8101C7.54001 1.1501 8.14 0.610107 8.91 0.610107H11.37C12.14 0.610107 12.74 1.1501 12.74 1.8101V7.2701H18.22C18.87 7.2701 19.42 7.9001 19.42 8.6701Z" fill="#BDDBED"/>
</svg>
