<svg width="18" height="19" viewBox="0 0 18 19" fill="none" xmlns="http://www.w3.org/2000/svg">
<path d="M15.99 5.02991L1.41003 5.13991C1.24003 5.13991 1.06996 5.21991 0.959961 5.34991C0.849961 5.47991 0.809966 5.65991 0.839966 5.82991L3.27002 18.5199C3.32002 18.7999 3.56998 18.9999 3.84998 18.9899L13.6801 18.9099C13.9601 18.9099 14.2 18.7099 14.25 18.4299L16.5699 5.69991C16.5999 5.52991 16.5499 5.34991 16.4399 5.21991C16.3299 5.10991 16.16 5.02991 15.99 5.02991ZM5.59998 18.1399C5.27998 18.1899 4.98994 17.9799 4.93994 17.6599L3.27002 7.19991C3.22002 6.87991 3.43 6.5899 3.75 6.5399C4.07 6.4899 4.36003 6.69991 4.41003 7.01991L6.07996 17.4799C6.12996 17.7899 5.91998 18.0899 5.59998 18.1399ZM8.80005 18.1799C8.48005 18.1799 8.21997 17.9299 8.21997 17.6099L8.14001 7.01991C8.14001 6.69991 8.39996 6.43991 8.70996 6.43991C9.02996 6.43991 9.29004 6.6899 9.29004 7.0099L9.37 17.5999C9.38 17.9199 9.12005 18.1799 8.80005 18.1799ZM14.16 7.10991L12.65 17.5899C12.6 17.9099 12.31 18.1299 11.99 18.0799C11.67 18.0299 11.45 17.7399 11.5 17.4299L13.01 6.94991C13.06 6.62991 13.35 6.40992 13.67 6.45992C13.99 6.49992 14.21 6.79991 14.16 7.10991Z" fill="#BDDBED"/>
<path d="M17.26 2.71996L15.67 2.72995L15.66 1.80995C15.66 1.73995 15.63 1.66995 15.58 1.61995C15.53 1.56995 15.46 1.53995 15.39 1.53995L11.88 1.56996L11.87 0.629959C11.87 0.489959 11.81 0.33996 11.71 0.23996C11.61 0.13996 11.4699 0.0799561 11.3199 0.0799561L5.90002 0.119949C5.76002 0.119949 5.61001 0.179953 5.51001 0.279953C5.41001 0.379953 5.34998 0.519952 5.34998 0.669952L5.35999 1.60995L2.08997 1.63995C2.01997 1.63995 1.95002 1.66996 1.90002 1.71996C1.85002 1.76996 1.81995 1.83996 1.81995 1.90996L1.82996 2.82996L0.0999756 2.83995L0.109985 4.58995L17.27 4.45996L17.26 2.71996ZM6.45996 1.60995V1.21996L10.78 1.18996V1.57996L6.45996 1.60995Z" fill="#BDDBED"/>
</svg>
