<svg width="17" height="22" viewBox="0 0 17 22" fill="none" xmlns="http://www.w3.org/2000/svg">
<path d="M11.81 0.830002C11.72 0.740002 11.6 0.690002 11.47 0.690002H0.830017C0.700017 0.690002 0.57999 0.740002 0.48999 0.830002C0.39999 0.920002 0.349976 1.04 0.349976 1.17V15.38C0.349976 15.51 0.39999 15.63 0.48999 15.72C0.57999 15.81 0.700017 15.86 0.830017 15.86H5.71997V7.12C5.71997 7.04 5.75 6.94999 5.81 6.89999C5.87 6.83999 5.95003 6.81 6.03003 6.81H11.94V1.17999C11.95 1.03999 11.9 0.920002 11.81 0.830002ZM5.46997 12.74H1.72998V11.79H5.46997V12.74ZM5.46997 10.59H1.66998V9.64001H5.46997V10.59ZM5.46997 8.44H1.72998V7.49001H5.46997V8.44ZM10.58 6.28999H1.72998V5.34H10.58V6.28999ZM10.58 4.14H2.63V3.19H10.58V4.14Z" fill="#BDDBED"/>
<path d="M16.91 6.88998C16.85 6.82998 16.77 6.79999 16.69 6.79999H11.96H6.04999C5.96999 6.79999 5.88002 6.82998 5.83002 6.88998C5.77002 6.94998 5.73999 7.02999 5.73999 7.10999V15.85V21.32C5.73999 21.4 5.77002 21.49 5.83002 21.54C5.89002 21.6 5.96999 21.63 6.04999 21.63H16.69C16.77 21.63 16.86 21.6 16.91 21.54C16.97 21.48 17 21.4 17 21.32V7.10999C17 7.02999 16.97 6.94998 16.91 6.88998ZM15.79 13.43V14.38H6.94V13.43H15.79ZM6.94 12.23V11.28H15.79V12.23H6.94ZM15.79 15.59V16.54H6.94V15.59H15.79ZM13.59 17.74V18.69H6.94V17.74H13.59ZM15.79 10.08H7.84003V9.12999H15.79V10.08Z" fill="#BDDBED"/>
</svg>
