<svg width="26" height="19" viewBox="0 0 26 19" fill="none" xmlns="http://www.w3.org/2000/svg">
<path fill-rule="evenodd" clip-rule="evenodd" d="M0.869942 5.54001H4.75994L4.30994 4.54001L4.17994 4.20001L4.43994 3.94L7.85994 0.279999H9.40994L5.45994 4.44L5.92994 5.54999H12.1699V0.290009H13.4599V5.54999H19.5099L20.1199 4.13L16.5699 0.290009H18.0699L21.1699 3.63L21.4099 3.89001L21.2799 4.23001L20.6999 5.54999H24.9399L25.3599 6L24.9099 6.47L20.3099 6.44L16.9399 14.57L14.7799 16.75L19.1199 6.44H13.4599V18.09L12.8299 18.72L12.1699 18.06V6.42999H6.32994L10.3299 16.14L8.16994 13.93L5.11994 6.42999L0.88994 6.45999L0.439941 5.98999L0.869942 5.54001ZM0.499941 5.92999L5.65994 0.299988L5.68994 0.269989H5.71994H20.0999H20.1499L20.1799 0.299988L25.3099 5.92999L25.3599 5.98001L25.3099 6.03L12.9199 18.66L12.8399 18.71L12.7899 18.66L0.499941 6.04001L0.449942 5.98999L0.499941 5.92999Z" fill="#BDDBED"/>
</svg>
