<svg width="20" height="20" viewBox="0 0 20 20" fill="none" xmlns="http://www.w3.org/2000/svg">
<path d="M17.04 19.09C16.54 19.09 16.03 18.9 15.65 18.51L0.790024 3.64998C0.0200244 2.87998 0.0200244 1.63998 0.790024 0.86998C1.56002 0.0999805 2.79993 0.0999805 3.56993 0.86998L18.43 15.73C19.2 16.5 19.2 17.74 18.43 18.51C18.04 18.89 17.54 19.09 17.04 19.09Z" fill="#BDDBED"/>
<path d="M2.18004 19.09C1.68004 19.09 1.17002 18.9 0.790024 18.51C0.0200244 17.74 0.0200244 16.5 0.790024 15.73L15.65 0.86998C16.42 0.0999805 17.66 0.0999805 18.43 0.86998C19.2 1.63998 19.2 2.87998 18.43 3.64998L3.56993 18.51C3.18993 18.89 2.68004 19.09 2.18004 19.09Z" fill="#BDDBED"/>
</svg>
