<svg width="16" height="19" viewBox="0 0 16 19" fill="none" xmlns="http://www.w3.org/2000/svg">
<path d="M14.35 3.82999V3.56999C14.35 3.36999 14.14 3.17999 13.93 3.17999H12.37V5.38999H13.93C14.14 5.38999 14.35 5.23999 14.35 5.02999V4.77999C14.68 4.79999 15.01 4.99999 15.01 5.24999V14.05C15.01 14.31 14.6 14.54 14.26 14.54H12.04V15.49H14.26C15.29 15.49 16 14.84 16 14.05V5.24999C16 4.47999 15.34 3.84999 14.35 3.82999Z" fill="#BDDBED"/>
<path d="M13.59 17.49H0.47998V18.78H13.59V17.49Z" fill="#BDDBED"/>
<path d="M11.21 0.649994H2.57996C1.80996 0.649994 1.45996 1.04 1.45996 1.73V17.7H12.69V1.73C12.7 1.04 11.98 0.649994 11.21 0.649994ZM11.05 9.17999H3.11996V7.59999H11.05V9.17999ZM11.05 6.51999C11.05 6.75999 10.84 6.95999 10.59 6.95999H3.58997C3.32997 6.95999 3.12997 6.75999 3.12997 6.51999V2.66999C3.12997 2.42999 3.33997 2.23 3.58997 2.23H10.59C10.85 2.23 11.05 2.42999 11.05 2.66999V6.51999Z" fill="#BDDBED"/>
</svg>
