<svg width="21" height="22" viewBox="0 0 21 22" fill="none" xmlns="http://www.w3.org/2000/svg">
<path d="M16.98 0.839935L9.97999 8.53994L9.62 8.20994L8.25 9.71994C6.16 9.11994 3.83002 9.69994 2.27002 11.4099C0.0800241 13.8099 0.259978 17.5399 2.65998 19.7199C5.05998 21.9099 8.78998 21.7299 10.97 19.3299C12.53 17.6199 12.88 15.2299 12.09 13.2099L13.46 11.6999L12.86 11.1499L15.25 8.51994L15.01 7.82994L15.06 7.76994L16.01 6.71994L15.55 5.34994C15.55 5.34994 16.52 5.48994 17.03 5.58994L17.83 4.70994L17.65 3.49994L18.7 3.74994L19.37 3.00994L20.18 0.689941L16.98 0.839935ZM6.06 18.6599C5.39 19.3999 4.24001 19.4499 3.51001 18.7799C2.77001 18.1099 2.72002 16.9599 3.39002 16.2299C4.06002 15.4899 5.21001 15.4399 5.94001 16.1099C6.68001 16.7799 6.74 17.9199 6.06 18.6599Z" fill="#BDDBED"/>
</svg>
