<svg width="22" height="22" viewBox="0 0 22 22" fill="none" xmlns="http://www.w3.org/2000/svg">
<path d="M9.17004 0.919987L1.46997 1.59999C1.08997 1.62999 0.800049 1.94999 0.800049 2.32999V19.21C0.800049 19.57 1.06003 19.87 1.41003 19.94L9.10999 21.31C9.32999 21.35 9.54996 21.29 9.70996 21.15C9.87996 21.01 9.96997 20.8 9.96997 20.59V1.64999C9.96997 1.43999 9.87998 1.24999 9.72998 1.10999C9.57998 0.96999 9.38004 0.899987 9.17004 0.919987ZM7.94995 12.13C7.62995 12.13 7.38 11.68 7.38 11.12C7.38 10.56 7.63995 10.11 7.94995 10.11C8.26995 10.11 8.52002 10.56 8.52002 11.12C8.53002 11.67 8.26995 12.13 7.94995 12.13Z" fill="#BDDBED"/>
<path d="M21.16 10.72L15.14 6.25V8.57H10.46V12.85H15.14V15.17L21.16 10.72Z" fill="#BDDBED"/>
<path d="M13.46 7.91H14.61V2.14C14.61 1.99 14.5499 1.84 14.4399 1.73C14.3299 1.62 14.19 1.56 14.03 1.56H10.45V2.71H13.46V7.91Z" fill="#BDDBED"/>
<path d="M13.46 19.52H10.45V20.67H14.03C14.18 20.67 14.3299 20.61 14.4399 20.5C14.5499 20.39 14.61 20.24 14.61 20.09V13.47H13.46V19.52Z" fill="#BDDBED"/>
</svg>
