<svg width="21" height="20" viewBox="0 0 21 20" fill="none" xmlns="http://www.w3.org/2000/svg">
<path d="M20.78 10.3799L17.62 6.18993C17.47 5.98993 17.16 5.97993 17.01 6.18993L13.75 10.3799C13.55 10.6299 13.73 10.9999 14.05 10.9999H16.16C15.61 14.2699 12.77 16.7599 9.34998 16.7599C5.53998 16.7599 2.43994 13.6599 2.43994 9.84993C2.43994 6.03993 5.53998 2.93993 9.34998 2.93993C11.43 2.93993 13.38 3.86993 14.7 5.47993C15.1 5.95993 15.81 6.02993 16.29 5.63993C16.77 5.24993 16.85 4.52993 16.45 4.04993C14.7 1.90993 12.11 0.679932 9.34998 0.679932C4.29998 0.679932 0.180054 4.78993 0.180054 9.84993C0.180054 14.8999 4.28998 19.0199 9.34998 19.0199C14.02 19.0199 17.8799 15.5099 18.4399 10.9999H20.47C20.79 10.9999 20.97 10.6399 20.78 10.3799Z" fill="#BDDBED"/>
</svg>
