<svg width="21" height="22" viewBox="0 0 21 22" fill="none" xmlns="http://www.w3.org/2000/svg">
<path d="M20.8 4.81C20.8 4.44 20.71 4.13 20.47 3.9C20.32 3.75 18.63 2.06 17.76 1.2C17.45 0.899997 16.88 0.690002 16.45 0.690002C16.02 0.690002 2.06 0.699997 2.06 0.699997C1.12 0.699997 0.359985 1.46 0.359985 2.4L0.369995 20C0.369995 20.94 1.13001 21.7 2.07001 21.7L19.1 21.69C20.04 21.69 20.8 20.93 20.8 19.99C20.81 19.99 20.8 5.04 20.8 4.81ZM15.61 1.74V7.56C15.61 8.07 15.09 8.55 14.58 8.55H7.17999C6.66999 8.55 6.20001 8.07 6.20001 7.56V1.74H15.61ZM3.22998 11.3C3.22998 10.69 3.70998 10.19 4.28998 10.19H16.88C17.47 10.19 17.94 10.69 17.94 11.3V19H3.21997V11.3H3.22998Z" fill="#BDDBED"/>
<path d="M12.05 7.66999H13.98C14.3 7.66999 14.55 7.40999 14.56 7.08999V3.20999C14.56 2.88999 14.3 2.62999 13.98 2.63999H12.05C11.73 2.63999 11.47 2.89999 11.47 3.21999V7.09999C11.48 7.40999 11.74 7.66999 12.05 7.66999Z" fill="#BDDBED"/>
<path d="M16.61 12.87H4.57001V13.42H16.61V12.87Z" fill="#BDDBED"/>
<path d="M16.61 14.51H4.57001V15.06H16.61V14.51Z" fill="#BDDBED"/>
<path d="M16.61 16.15H4.57001V16.7H16.61V16.15Z" fill="#BDDBED"/>
</svg>
