<svg width="23" height="17" viewBox="0 0 23 17" fill="none" xmlns="http://www.w3.org/2000/svg">
<path d="M6.96 17C6.94 17 6.92 17 6.9 17C6.37 16.98 5.87996 16.66 5.59996 16.16C3.81996 12.99 0.699954 10.04 0.659954 10.01C-0.0200464 9.37001 -0.120007 8.22 0.449993 7.44C1.01999 6.66 2.02995 6.56001 2.71995 7.20001C2.83995 7.31001 5.09997 9.44001 7.04997 12.2C9.01997 9.67001 13.12 4.98 19.53 0.320005C20.28 -0.229995 21.27 0.0199925 21.75 0.869993C22.23 1.71999 22.01 2.85 21.27 3.39C12.58 9.72 8.29999 16.2 8.25999 16.26C7.94999 16.73 7.47 17 6.96 17Z" fill="#BDDBED"/>
</svg>
