<svg width="20" height="20" viewBox="0 0 20 20" fill="none" xmlns="http://www.w3.org/2000/svg">
<path d="M17.8499 12.77L18.7699 12.73C18.9899 12.72 19.2099 12.54 19.2599 12.34L19.5599 10.88C19.5899 10.67 19.4599 10.42 19.2599 10.32L18.4299 9.92001C18.2399 9.83001 18.0799 9.56998 18.0699 9.35998C18.0699 9.35998 18.0699 9.24999 18.0499 8.99999C18.0399 8.90999 18.0399 8.91 18.0399 8.91C18.0299 8.82 18.1699 8.63999 18.3499 8.52999L19.1299 8.02999C19.3099 7.90999 19.4199 7.64999 19.3599 7.43999L18.8999 6.01998C18.8199 5.81998 18.5799 5.66998 18.3599 5.67999L17.4299 5.74999C17.2099 5.76999 16.9599 5.64998 16.8599 5.48998C16.7599 5.32998 16.5599 4.76998 16.6599 4.57998L17.0899 3.76C17.1899 3.57 17.1499 3.29001 16.9999 3.14001L15.8899 2.14001C15.7199 2.01001 15.4399 1.99999 15.2599 2.11999L14.4899 2.64001C14.3099 2.76001 14.0299 2.79 13.8699 2.7C13.7099 2.61 13.2499 2.23 13.2499 2.01L13.2099 1.08999C13.1999 0.869989 13.0199 0.649999 12.8199 0.599999L11.3599 0.29998C11.1499 0.26998 10.8999 0.399999 10.7999 0.599999L10.3999 1.42999C10.3099 1.61999 10.0499 1.79 9.83992 1.79C9.83992 1.79 9.72992 1.78999 9.47992 1.80999C9.38992 1.81999 9.38992 1.82 9.38992 1.82C9.29992 1.83 9.11992 1.69 9.00992 1.51L8.50992 0.719994C8.39992 0.539994 8.12992 0.429983 7.91992 0.489983L6.49992 0.950005C6.29992 1.03 6.14992 1.26998 6.15992 1.48998L6.22992 2.42001C6.24992 2.63001 6.12992 2.88998 5.96992 2.98998C5.80992 3.08998 5.25992 3.28999 5.05992 3.19L4.23992 2.76C4.04992 2.66 3.76992 2.7 3.61992 2.85L2.61992 3.95998C2.48992 4.12998 2.47992 4.40999 2.59992 4.58999L3.11992 5.35998C3.23992 5.53998 3.26992 5.82 3.17992 5.98C3.08992 6.14 2.70992 6.59 2.48992 6.6L1.55992 6.64001C1.34992 6.65001 1.11992 6.82999 1.06992 7.02999L0.769921 8.48998C0.739921 8.69998 0.86992 8.94998 1.06992 9.04998L1.89992 9.45C2.08992 9.54 2.24992 9.8 2.25992 10.01C2.25992 10.01 2.25992 10.12 2.27992 10.37C2.28992 10.46 2.28992 10.46 2.28992 10.46C2.29992 10.55 2.15992 10.73 1.97992 10.84L1.18992 11.34C1.00992 11.45 0.89992 11.72 0.95992 11.93L1.41992 13.35C1.49992 13.55 1.73992 13.7 1.95992 13.69L2.88992 13.62C3.09992 13.6 3.35992 13.72 3.45992 13.88C3.55992 14.04 3.75992 14.6 3.65992 14.79L3.22992 15.61C3.12992 15.8 3.16992 16.08 3.31992 16.23L4.42992 17.23C4.59992 17.36 4.87992 17.37 5.05992 17.25L5.82992 16.73C6.00992 16.61 6.28992 16.58 6.44992 16.67C6.60992 16.76 7.05992 17.14 7.06992 17.36L7.10992 18.29C7.11992 18.51 7.29992 18.73 7.49992 18.79L8.95992 19.09C9.16992 19.12 9.41992 18.99 9.51992 18.79L9.91992 17.96C10.0099 17.77 10.2699 17.6 10.4799 17.6C10.4799 17.6 10.5899 17.6 10.8399 17.58C10.9299 17.57 10.9299 17.57 10.9299 17.57C11.0199 17.56 11.1999 17.7 11.3099 17.88L11.8099 18.67C11.9199 18.85 12.1899 18.96 12.3999 18.9L13.8199 18.44C14.0199 18.36 14.1699 18.12 14.1599 17.91L14.0899 16.98C14.0699 16.77 14.1899 16.51 14.3499 16.41C14.5099 16.31 15.0699 16.11 15.2599 16.21L16.0799 16.64C16.2699 16.74 16.5499 16.7 16.6999 16.55L17.6999 15.44C17.8299 15.27 17.8399 14.99 17.7199 14.81L17.1999 14.04C17.0799 13.86 17.0499 13.58 17.1399 13.42C17.2499 13.23 17.6299 12.78 17.8499 12.77ZM10.1799 16.06C6.65992 16.06 3.80992 13.2 3.80992 9.68999C3.80992 6.16999 6.66992 3.30999 10.1799 3.30999C13.6999 3.30999 16.5499 6.16999 16.5499 9.68999C16.5499 13.2 13.6899 16.06 10.1799 16.06Z" fill="#BDDBED"/>
</svg>
