<svg width="26" height="17" viewBox="0 0 26 17" fill="none" xmlns="http://www.w3.org/2000/svg">
<path fill-rule="evenodd" clip-rule="evenodd" d="M1.61008 0.119995H22.1901C22.6001 0.119995 22.9301 0.449999 22.9301 0.889999V9.28999C20.3301 8.21999 17.1901 10.06 17.1901 13.17C17.1901 13.55 17.2401 13.91 17.3401 14.24L9.63008 14.29L5.14007 16.74L5.12008 14.24L1.62008 14.21C1.19008 14.21 0.850075 13.88 0.850075 13.44V0.880005C0.840075 0.450005 1.17008 0.119995 1.61008 0.119995ZM21.3701 13.17H25.2001C25.2001 11.05 23.4901 9.34 21.3701 9.34V13.17ZM20.8801 13.65V9.36C18.9901 9.59 17.5401 11.2 17.5401 13.16C17.5401 15.28 19.2501 16.99 21.3701 16.99C23.3101 16.99 24.9201 15.53 25.1701 13.64H20.8801V13.65ZM7.22008 10.11H12.0201C12.0201 10.11 12.0401 10.14 12.0401 10.19V10.78C12.0401 10.83 12.0201 10.86 12.0201 10.86H7.22008C7.22008 10.86 7.20008 10.83 7.20008 10.78V10.19C7.20008 10.13 7.22008 10.11 7.22008 10.11ZM7.22008 4.03H12.0201C12.0201 4.03 12.0401 4.08 12.0401 4.11V4.72C12.0401 4.77 12.0201 4.8 12.0201 4.8H7.22008C7.22008 4.8 7.20008 4.77 7.20008 4.72V4.11C7.20008 4.08 7.22008 4.03 7.22008 4.03ZM4.01007 2.60001H6.18007C6.28007 2.60001 6.33008 2.68 6.33008 2.75V4.64C6.33008 4.72 6.28007 4.78999 6.18007 4.78999H4.01007C3.91007 4.78999 3.86007 4.71 3.86007 4.64V2.75C3.85008 2.68 3.90007 2.60001 4.01007 2.60001ZM7.25007 2.60001H18.0001C18.0501 2.60001 18.0801 2.62999 18.0801 2.67999V3.27C18.0801 3.32 18.0501 3.37 18.0001 3.37H7.25007C7.22007 3.37 7.17007 3.32 7.17007 3.27V2.67999C7.17007 2.62999 7.22007 2.60001 7.25007 2.60001ZM7.22008 7.07001H12.0201C12.0201 7.07001 12.0401 7.09999 12.0401 7.14999V7.75999C12.0401 7.78999 12.0201 7.84 12.0201 7.84H7.22008C7.22008 7.84 7.20008 7.78999 7.20008 7.75999V7.14999C7.20008 7.08999 7.22008 7.07001 7.22008 7.07001ZM4.01007 5.61H6.18007C6.28007 5.61 6.33008 5.68999 6.33008 5.78999V7.67999C6.33008 7.75999 6.28007 7.83 6.18007 7.83H4.01007C3.91007 7.83 3.86007 7.74999 3.86007 7.67999V5.78999C3.85008 5.68999 3.90007 5.61 4.01007 5.61ZM7.25007 5.61H18.0001C18.0501 5.61 18.0801 5.66001 18.0801 5.71001V6.3C18.0801 6.35 18.0501 6.38 18.0001 6.38H7.25007C7.22007 6.38 7.17007 6.35 7.17007 6.3V5.71001C7.17007 5.66001 7.22007 5.61 7.25007 5.61ZM4.01007 8.64999H6.18007C6.28007 8.64999 6.33008 8.73 6.33008 8.8V10.69C6.33008 10.79 6.28007 10.84 6.18007 10.84H4.01007C3.91007 10.84 3.86007 10.79 3.86007 10.69V8.8C3.85008 8.73 3.90007 8.64999 4.01007 8.64999ZM7.25007 8.64999H18.0001C18.0501 8.64999 18.0801 8.68 18.0801 8.73V9.34C18.0801 9.37 18.0501 9.42 18.0001 9.42H7.25007C7.22007 9.42 7.17007 9.37 7.17007 9.34V8.73C7.17007 8.68 7.22007 8.64999 7.25007 8.64999Z" fill="white"/>
</svg>
