<svg width="18" height="17" viewBox="0 0 18 17" fill="none" xmlns="http://www.w3.org/2000/svg">
<path fill-rule="evenodd" clip-rule="evenodd" d="M15.0199 0H2.2799L0.149902 10.62H17.1499L15.0199 0ZM9.0799 6.60001C9.0799 6.38001 9.0299 6.21999 8.9199 6.07999C8.8299 5.93999 8.6499 5.81001 8.3999 5.70001C7.9999 5.54001 7.7199 5.36001 7.5199 5.14001C7.3199 4.92001 7.2299 4.64001 7.2299 4.26001C7.2299 3.90001 7.3199 3.61 7.5199 3.38C7.6999 3.15 7.9499 3.02 8.2699 2.97V2.26999H8.6999V3C9.0199 3.05 9.2699 3.2 9.4499 3.47C9.6299 3.72 9.7199 4.05999 9.7199 4.48999H9.0599C9.0599 4.19999 9.0099 3.94999 8.8999 3.76999C8.7899 3.58999 8.6499 3.5 8.4699 3.5C8.2699 3.5 8.1299 3.57 8.0399 3.72C7.9499 3.86 7.8999 4.04001 7.8999 4.26001C7.8999 4.48001 7.9499 4.65 8.0399 4.78C8.1499 4.92 8.3299 5.04999 8.5799 5.17999C8.9699 5.33999 9.2599 5.51999 9.4599 5.73999C9.6399 5.93999 9.7499 6.24001 9.7499 6.60001C9.7499 6.98001 9.6399 7.26 9.4599 7.5C9.2599 7.72 8.9899 7.84001 8.6499 7.89001V8.51999H8.2399V7.89001C7.8999 7.84001 7.6299 7.70999 7.3999 7.45999C7.1899 7.22999 7.0799 6.89001 7.0799 6.42001H7.7399C7.7399 6.76001 7.8099 7.01 7.9399 7.16C8.0799 7.3 8.2499 7.38 8.4399 7.38C8.6399 7.38 8.7999 7.30999 8.9099 7.17999C9.0299 7.00999 9.0799 6.83001 9.0799 6.60001ZM13.9599 9.56H3.3399C3.3399 8.61 2.7099 7.81999 1.8499 7.54999L2.7499 3.10001C2.9299 3.15001 3.1299 3.19 3.3399 3.19C4.5099 3.19 5.4599 2.24001 5.4599 1.07001H11.8399C11.8399 2.24001 12.7899 3.19 13.9599 3.19C14.1799 3.19 14.3699 3.15001 14.5499 3.10001L15.4499 7.54999C14.5899 7.81999 13.9599 8.61 13.9599 9.56ZM0.149902 11.69H17.1499V12.75H0.149902V11.69ZM0.149902 13.81H17.1499V14.87H0.149902V13.81ZM0.149902 15.92H17.1499V17H0.149902V15.92Z" fill="#BDDBED"/>
</svg>
