<svg width="18" height="22" viewBox="0 0 18 22" fill="none" xmlns="http://www.w3.org/2000/svg">
<path d="M6.09999 7.49005H7.03005V13C7.03005 14.16 7.97002 15.1 9.13002 15.1C10.29 15.1 11.23 14.16 11.23 13V7.49005H12.16C12.96 7.49005 13.28 6.93005 12.88 6.24005L9.84999 1.00004C9.44999 0.310044 8.80004 0.310044 8.40004 1.00004L5.37001 6.24005C4.98001 6.93005 5.29999 7.49005 6.09999 7.49005Z" fill="#BDDBED"/>
<path d="M16.34 12.8401H14.64C14.14 12.8401 13.73 13.2501 13.73 13.7501V18.0001H4.51001V13.7501C4.51001 13.2501 4.09998 12.8401 3.59998 12.8401H1.90002C1.40002 12.8401 0.98999 13.2501 0.98999 13.7501V19.2701V20.2501V20.3001C0.98999 20.3201 1 20.3301 1 20.3501C1.01 20.4501 1.03006 20.5501 1.06006 20.6501C1.23006 21.1501 1.7 21.5101 2.25 21.5101H15.97C16.52 21.5101 16.99 21.1501 17.16 20.6501C17.19 20.5501 17.21 20.4501 17.22 20.3501C17.22 20.3301 17.23 20.3201 17.23 20.3001V20.2501V19.2701V13.7501C17.25 13.2501 16.84 12.8401 16.34 12.8401Z" fill="#BDDBED"/>
</svg>
