<svg width="19" height="17" viewBox="0 0 19 17" fill="none" xmlns="http://www.w3.org/2000/svg">
<path fill-rule="evenodd" clip-rule="evenodd" d="M1.76992 4.10001H17.0899C17.3999 4.10001 17.6699 4.21999 17.8799 4.42999C18.0699 4.61999 18.2099 4.89 18.2099 5.2V7.47V7.55H18.1299H13.3999C13.0099 7.55 12.6499 7.7 12.3899 7.98C12.1199 8.23 11.9599 8.60001 11.9599 8.99001V11.95C11.9599 12.36 12.1199 12.71 12.3899 12.96C12.6399 13.23 13.0099 13.39 13.3999 13.39H18.1199H18.1999V13.47V15.74C18.1999 16.05 18.0599 16.32 17.8699 16.53C17.6599 16.72 17.3899 16.84 17.0799 16.84H1.76992C1.47992 16.84 1.18992 16.72 0.999922 16.53C0.809922 16.32 0.669922 16.05 0.669922 15.74V5.2C0.669922 4.89 0.809922 4.61999 0.999922 4.42999C1.18992 4.20999 1.47992 4.10001 1.76992 4.10001ZM13.3999 8.34H18.3799C18.7299 8.34 18.9999 8.63 18.9999 8.98V11.94C18.9999 12.29 18.7299 12.58 18.3799 12.58H13.3999C13.0499 12.58 12.7799 12.29 12.7799 11.94V8.98C12.7799 8.63 13.0599 8.34 13.3999 8.34ZM1.74992 3.44C5.17992 2.59 11.2199 1.72 14.6299 0.860001C14.9399 0.860001 15.1299 0.999996 15.2499 1.23C15.4399 1.97 15.6399 2.7 15.8299 3.44C12.0099 3.44 5.55992 3.44 1.74992 3.44ZM15.8099 9.19C16.5099 9.19 17.0699 9.72999 17.0699 10.43C17.0699 11.11 16.5099 11.67 15.8099 11.67C15.1299 11.67 14.5699 11.11 14.5699 10.43C14.5699 9.72999 15.1299 9.19 15.8099 9.19Z" fill="#BDDBED"/>
</svg>
